# xmcd
#
# Track frame offsets:
#	150
#	20757
#	42568
#	58853
#	79114
#	95737
#	113733
#	135567
#	148915
#	169564
#	185537
#	206222
#	223319
#	241534
#	258216
#
# Disc length: 3668 seconds
#
# Revision: 0
# Processed by: cddbd v1.5.2PL0 Copyright (c) Steve Scherf et al.
# Submitted via: EasyCDDAExtractor 10.0.2.1
#
DISCID=e10e520f
DTITLE=Halmark Artists - How Sweet The Sound
DYEAR=2007
DGENRE=Gospel
TTITLE0=Holy, Holy, Holy
TTITLE1=Because He Lives
TTITLE2=Morning has Broken
TTITLE3=Old Rugged Cross
TTITLE4=Amazing Grace
TTITLE5=Come Thou Fount Of Every Blessing
TTITLE6=It Is Well Within My Soul
TTITLE7=In My Father's House
TTITLE8=When I Survey The Wondrous Cross
TTITLE9=Fairest Lord Jesus
TTITLE10=In The Garden
TTITLE11=This Is My Father's World
TTITLE12=Softly And Tenderly
TTITLE13=I Need Thee Every Hour
TTITLE14=You'll Never Walk Alone
EXTD=
EXTT0=
EXTT1=
EXTT2=
EXTT3=
EXTT4=
EXTT5=
EXTT6=
EXTT7=
EXTT8=
EXTT9=
EXTT10=
EXTT11=
EXTT12=
EXTT13=
EXTT14=
PLAYORDER=
